<?xml version="1.0" standalone="no"?>
<!DOCTYPE svg PUBLIC "-//W3C//DTD SVG 1.1//EN" "http://www.w3.org/Graphics/SVG/1.1/DTD/svg11.dtd">
<svg xmlns="http://www.w3.org/2000/svg">
<defs >
<font id="IBMPlexSansCondensed" horiz-adv-x="518" ><font-face
    font-family="IBM Plex Sans Condensed"
    units-per-em="1000"
    panose-1="2 11 5 6 5 2 3 0 2 3"
    ascent="1025"
    descent="-275"
    alphabetic="0" />
<glyph unicode=" " glyph-name="space" horiz-adv-x="212" />
<glyph unicode="!" glyph-name="exclam" horiz-adv-x="256" d="M97 183L136 493L177 698H256L215 493L133 183H97ZM80 -12Q57 -12 45 -3T32 26Q32 40 37 62Q42 82 56 94T102 106Q125 106 137 97T150 68Q150 54 145 32Q140 12 126 0T80 -12Z" />
<glyph unicode="&quot;" glyph-name="quotedbl" horiz-adv-x="374" d="M113 463L169 740H237L181 463H113ZM275 463L331 740H399L343 463H275Z" />
<glyph unicode="#" glyph-name="numbersign" horiz-adv-x="611" d="M337 207H211L139 0H79L151 207H38L48 259H170L232 439H119L129 491H251L323 698H383L311 491H437L509 698H569L497 491H609L599 439H478L416 259H528L518 207H397L325 0H265L337 207ZM356 259L418
439H292L230 259H356Z" />
<glyph unicode="$" glyph-name="dollar" horiz-adv-x="523" d="M172 1Q116 9 75 39T10 124L64 163Q87 115 116 91T186 61L242 341L231 345Q167 368 133 407T98 509Q98 549 112 583T154 643T221 684T312 700L329 780H391L373 695Q425 685 459 658T518 591L462 546Q443
578 419 599T358 629L310 389L324 384Q389 361 425 321T461 209Q461 165 446 127T401 62T329 17T233 -2L218 -82H156L172 1ZM385 206Q385 254 362 279T296 321L244 60Q312 68 348 107T385 206ZM172 516Q172 473 192 450T256 409L301 634Q241 632 207 603T172 516Z"
/>
<glyph unicode="%" glyph-name="percent" horiz-adv-x="805" d="M106 0L662 698H736L180 0H106ZM218 360Q283 360 301 450L322 555Q324 563 324 572T325 588Q325 628 309 646T265 664Q200 664 182 574L161 469Q158 452 158 436Q158 396 174 378T218 360ZM212 314Q156
314 128 347T99 437Q99 460 103 489T112 546Q128 625 166 667T271 710Q327 710 355 677T384 587Q384 564 380 535T371 478Q355 399 317 357T212 314ZM577 34Q642 34 660 124L681 229Q683 237 683 246T684 262Q684 302 668 320T624 338Q559 338 541 248L520 143Q517
126 517 110Q517 70 533 52T577 34ZM571 -12Q515 -12 487 21T458 111Q458 134 462 163T471 220Q487 299 525 341T630 384Q686 384 714 351T743 261Q743 238 739 209T730 152Q714 73 676 31T571 -12Z" />
<glyph unicode="&amp;" glyph-name="ampersand" horiz-adv-x="609" d="M374 107H364Q322 -12 189 -12Q113 -12 73 30T32 147Q32 193 46 228T85 291T142 340T208 380Q187 413 176 446T165 517Q165 558 177 593T213 655T269 695T343 710Q370 710 394 703T437 680T465
640T476 581Q476 540 461 507T421 448T364 400T298 360L397 198Q417 237 431 279T455 366H577L564 302H501Q473 211 433 141L521 0H439L374 107ZM333 649Q287 649 267 623T239 559Q237 548 235 535T233 508Q233 488 241 465T269 408Q301 425 326 441T368 477T394
519T403 572Q403 649 333 649ZM212 51Q264 51 296 75T355 139L237 332Q210 317 190 304T154 277T129 244T114 202Q112 191 110 176T108 146Q108 101 134 76T212 51Z" />
<glyph unicode="&apos;" glyph-name="quotesingle" horiz-adv-x="212" d="M113 463L169 740H237L181 463H113Z" />
<glyph unicode="(" glyph-name="parenleft" horiz-adv-x="304" d="M67 184Q67 279 89 365T147 524T229 657T326 760H400Q357 722 319 677T249 582T196 483T165 388L143 280Q138 253 135 226T131 173Q131 86 154 6T220 -137H156Q119 -83 93 -2T67 184Z" />
<glyph unicode=")" glyph-name="parenright" horiz-adv-x="304" d="M261 439Q261 344 239 258T181 99T99 -34T2 -137H-72Q-29 -100 9 -54T79 41T132 140T163 235L185 343Q190 370 193 397T197 450Q197 537 174 617T108 760H172Q209 706 235 625T261 439Z" />
<glyph unicode="*" glyph-name="asterisk" horiz-adv-x="413" d="M160 404L111 447L220 556L219 564L98 598L128 657L239 603L247 608L269 747H334L296 608L302 603L431 657L443 596L308 561L303 553L368 439L310 404L262 529H254L160 404Z" />
<glyph unicode="+" glyph-name="plus" horiz-adv-x="540" d="M202 91L239 274H65L77 336H251L288 519H358L321 336H495L483 274H309L272 91H202Z" />
<glyph unicode="," glyph-name="comma" horiz-adv-x="244" d="M91 106Q114 106 126 97T139 68Q139 54 134 32Q130 15 121 -6T99 -50T68 -93T28 -132H-34Q0 -100 22 -72T58 -11Q21 -6 21 26Q21 40 26 62Q31 82 45 94T91 106Z" />
<glyph unicode="-" glyph-name="hyphen" horiz-adv-x="347" d="M61 265L77 343H306L290 265H61Z" />
<glyph unicode="." glyph-name="period" horiz-adv-x="244" d="M69 -12Q46 -12 34 -3T21 26Q21 40 26 62Q31 82 45 94T91 106Q114 106 126 97T139 68Q139 54 134 32Q129 12 115 0T69 -12Z" />
<glyph unicode="/" glyph-name="slash" horiz-adv-x="360" d="M-64 -151L343 740H411L4 -151H-64Z" />
<glyph unicode="0" glyph-name="zero" horiz-adv-x="540" d="M236 -12Q189 -12 155 3T98 44T64 106T53 181Q53 206 57 240T67 308T79 375T91 431Q105 494 126 545T177 633T248 690T342 710Q389 710 423 695T480 654T514 592T525 517Q525 491 521 458T511 390T499
323T487 267Q473 204 452 153T401 65T330 8T236 -12ZM242 54Q309 54 345 102T400 240L440 438Q445 461 446 480T448 513Q448 576 421 610T336 644Q269 644 233 596T178 458L138 260Q133 237 132 218T130 185Q130 122 157 88T242 54Z" />
<glyph unicode="1" glyph-name="one" horiz-adv-x="540" d="M42 0L56 68H222L332 620L145 505L114 558L338 698H425L299 68H457L443 0H42Z" />
<glyph unicode="2" glyph-name="two" horiz-adv-x="540" d="M422 0H27L44 84L287 301Q346 354 374 398T410 478Q412 489 415 510T419 550Q419 563 416 579T402 609T374 632T328 642Q271 642 239 611T186 519L122 547Q152 624 202 667T338 710Q420 710 461 667T503
548Q503 500 491 461T457 387T401 318T325 246L126 67H436L422 0Z" />
<glyph unicode="3" glyph-name="three" horiz-adv-x="540" d="M277 399Q327 399 358 424T403 514Q406 528 407 538T409 560Q409 602 386 622T319 642Q273 642 241 622T182 554L130 599Q162 647 210 678T333 710Q410 710 451 669T493 558Q493 518 481 486T447 429T398
390T338 370L336 360Q389 353 419 318T450 222Q450 171 436 129T393 55T321 6T220 -12Q181 -12 150 -2T95 24T55 63T30 110L93 152Q100 129 110 111T135 81T173 63T226 56Q288 56 319 87T362 182Q364 194 366 208T368 237Q368 279 343 305T264 332H196L210 399H277Z"
/>
<glyph unicode="4" glyph-name="four" horiz-adv-x="540" d="M280 0L308 137H24L39 211L380 698H495L395 201H482L469 137H383L355 0H280ZM108 201H320L404 621H394L108 201Z" />
<glyph unicode="5" glyph-name="five" horiz-adv-x="540" d="M510 631H246L180 351H190Q211 395 242 415T325 435Q394 435 434 394T474 263Q474 200 458 149T412 62T336 7T232 -12Q191 -12 160 -2T106 25T69 64T46 110L110 152Q116 130 126 113T151 83T189 63T242
56Q360 56 385 193Q388 210 391 230T394 264Q394 314 371 341T291 368Q248 368 219 348T169 297L105 307L198 698H524L510 631Z" />
<glyph unicode="6" glyph-name="six" horiz-adv-x="540" d="M238 -12Q148 -12 103 37T58 178Q58 207 61 234T70 283Q85 356 115 418T184 533T269 626T365 698H474Q415 660 364 617T271 528T200 432T156 334H166Q193 389 228 411T310 433Q386 433 428 384T470 257Q470
234 467 212T461 175Q452 134 434 100T388 40T323 2T238 -12ZM241 56Q303 56 337 93T383 195Q385 203 386 216T388 247Q388 304 362 334T282 365Q220 365 186 328T140 226Q138 218 137 205T135 174Q135 117 161 87T241 56Z" />
<glyph unicode="7" glyph-name="seven" horiz-adv-x="540" d="M107 0L461 631H210L184 499H114L154 698H551L536 621L189 0H107Z" />
<glyph unicode="8" glyph-name="eight" horiz-adv-x="540" d="M235 -12Q144 -12 97 33T49 159Q49 198 60 233T93 297T146 343T218 365L220 375Q177 388 155 420T132 506Q132 549 146 586T188 650T256 694T348 710Q433 710 473 669T514 558Q514 524 504 493T476
436T431 394T370 370L368 360Q423 347 447 313T471 220Q471 170 456 128T410 55T336 6T235 -12ZM243 55Q305 55 337 82T382 158Q384 166 386 177T390 200T393 223T394 243Q394 287 364 311T278 335Q216 335 184 308T139 232Q137 224 135 213T131 190T128 167T127
147Q127 103 157 79T243 55ZM306 399Q364 399 391 426T429 504Q435 532 435 554Q435 597 412 620T335 643Q306 643 285 636T250 616T227 583T212 538Q206 509 206 488Q206 445 229 422T306 399Z" />
<glyph unicode="9" glyph-name="nine" horiz-adv-x="540" d="M265 265Q189 265 147 314T105 441Q105 464 108 486T114 523Q123 564 141 598T187 657T252 696T337 710Q427 710 472 661T517 520Q517 491 514 464T505 415Q490 342 460 280T391 165T306 72T210 0H101Q160
37 211 80T304 169T375 265T419 364H409Q382 309 347 287T265 265ZM293 333Q355 333 389 370T435 472Q437 480 438 493T440 524Q440 581 414 611T334 642Q272 642 238 605T192 503Q190 495 189 482T187 451Q187 394 213 364T293 333Z" />
<glyph unicode=":" glyph-name="colon" horiz-adv-x="263" d="M79 -12Q56 -12 44 -3T31 26Q31 40 36 62Q41 82 55 94T101 106Q124 106 136 97T149 68Q149 54 144 32Q139 12 125 0T79 -12ZM162 404Q139 404 127 413T114 442Q114 456 119 478Q124 498 138 510T184
522Q207 522 219 513T232 484Q232 470 227 448Q222 428 208 416T162 404Z" />
<glyph unicode=";" glyph-name="semicolon" horiz-adv-x="263" d="M162 404Q139 404 127 413T114 442Q114 456 119 478Q124 498 138 510T184 522Q207 522 219 513T232 484Q232 470 227 448Q222 428 208 416T162 404ZM101 106Q124 106 136 97T149 68Q149 54 144
32Q140 15 131 -6T109 -50T78 -93T38 -132H-24Q10 -100 32 -72T68 -11Q31 -6 31 26Q31 40 36 62Q41 82 55 94T101 106Z" />
<glyph unicode="&lt;" glyph-name="less" horiz-adv-x="540" d="M79 244L93 315L512 562L495 475L163 278L161 268L412 62L397 -12L79 244Z" />
<glyph unicode="=" glyph-name="equal" horiz-adv-x="540" d="M85 374L97 436H515L503 374H85ZM45 176L57 238H475L463 176H45Z" />
<glyph unicode="&gt;" glyph-name="greater" horiz-adv-x="540" d="M54 75L386 272L388 282L137 488L152 562L470 306L456 235L37 -12L54 75Z" />
<glyph unicode="?" glyph-name="question" horiz-adv-x="420" d="M144 206L177 372Q249 376 296 409T354 493Q356 506 358 522T361 550Q361 592 339 617T271 643Q217 643 188 609T139 521L75 546Q104 620 151 665T279 710Q357 710 398 670T440 554Q440 460 386
398T238 317L216 206H144ZM141 -12Q118 -12 106 -3T93 26Q93 40 98 62Q103 82 117 94T163 106Q186 106 198 97T211 68Q211 54 206 32Q201 12 187 0T141 -12Z" />
<glyph unicode="@" glyph-name="at" horiz-adv-x="808" d="M355 -120Q205 -120 133 -38T61 192Q61 214 63 244T73 314Q90 401 125 474T213 599T335 681T491 710Q632 710 700 632T769 414Q769 399 768 377T760 321Q751 273 735 228T695 148T638 91T561 70Q522 70
500 89T478 149V161H468Q454 114 421 92T347 70Q298 70 267 103T236 209Q236 224 238 251T248 313Q268 411 311 461T418 512Q458 512 483 490T512 421H522L538 502H603L543 201Q541 194 539 181T537 157Q537 143 544 134T570 125Q593 125 612 138T646 175T673 232T692
304L702 356Q708 386 708 421Q708 473 696 517T656 592T586 641T483 659Q413 659 357 636T259 569T188 466T144 331L132 270Q125 232 125 190Q125 131 138 84T180 2T253 -50T359 -69H543L531 -120H355ZM373 130Q397 130 416 139T449 164T473 201T487 246L510 361Q513
377 510 393T496 422T470 443T431 451Q387 451 362 422T327 347L306 241Q304 233 304 225T304 215Q304 173 320 152T373 130Z" />
<glyph unicode="A" glyph-name="A" horiz-adv-x="559" d="M411 0L392 210H152L51 0H-31L315 698H419L489 0H411ZM363 534L358 631H348L306 534L185 275H386L363 534Z" />
<glyph unicode="B" glyph-name="B" horiz-adv-x="573" d="M174 698H414Q475 698 513 663T552 553Q552 521 544 491T520 435T478 391T418 365L416 355Q439 351 457 344T489 323T509 289T516 237Q516 190 502 148T460 72T395 20T308 0H34L174 698ZM308 67Q350 67
381 95T423 184Q428 213 430 228T432 251Q432 286 411 306T350 327H176L124 67H308ZM346 393Q395 393 423 417T464 496Q469 516 470 532T471 556Q471 591 455 611T401 631H237L190 393H346Z" />
<glyph unicode="C" glyph-name="C" horiz-adv-x="546" d="M259 -12Q204 -12 164 5T98 54T60 127T47 219Q47 239 49 262T54 310T62 358T71 401Q86 473 110 530T171 627T256 688T365 710Q408 710 441 699T500 666T542 616T567 553L496 522Q487 580 454 611T358 642Q273
642 227 586T160 428L134 298Q129 275 128 256T126 221Q126 143 159 100T266 56Q332 56 374 90T441 187L505 155Q466 77 406 33T259 -12Z" />
<glyph unicode="D" glyph-name="D" horiz-adv-x="584" d="M174 698H350Q408 698 450 681T519 634T560 564T574 479Q574 459 572 436T567 388T559 340T550 297Q535 229 509 175T445 81T357 21T244 0H34L174 698ZM251 67Q342 67 391 120T461 270L487 400Q492 423
493 442T495 477Q495 550 459 590T343 631H237L124 67H251Z" />
<glyph unicode="E" glyph-name="E" horiz-adv-x="516" d="M34 0L174 698H544L530 631H237L189 388H454L440 321H175L124 67H435L421 0H34Z" />
<glyph unicode="F" glyph-name="F" horiz-adv-x="495" d="M34 0L174 698H534L520 631H237L189 388H448L434 321H175L111 0H34Z" />
<glyph unicode="G" glyph-name="G" horiz-adv-x="605" d="M432 101H422Q402 50 360 19T246 -12Q196 -12 159 6T96 56T59 128T47 215Q47 237 49 262T55 313T63 361T71 401Q85 471 110 528T173 625T261 688T376 710Q422 710 458 699T520 666T564 616T590 553L518
521Q508 579 472 610T369 642Q282 642 232 588T160 428L134 298Q129 275 128 256T126 221Q126 146 164 101T271 56Q343 56 391 98T454 211L470 291H336L351 358H559L487 0H412L432 101Z" />
<glyph unicode="H" glyph-name="H" horiz-adv-x="628" d="M477 321H175L111 0H34L174 698H251L189 388H491L553 698H630L490 0H413L477 321Z" />
<glyph unicode="I" glyph-name="I" horiz-adv-x="359" d="M6 0L19 64H102L216 634H133L146 698H389L376 634H293L179 64H262L249 0H6Z" />
<glyph unicode="J" glyph-name="J" horiz-adv-x="459" d="M463 698L356 163Q337 69 290 29T159 -12Q90 -12 50 29T8 149L76 162Q78 116 96 86T162 56Q189 56 208 61T241 79T264 115T281 172L373 631H161L175 698H463Z" />
<glyph unicode="K" glyph-name="K" horiz-adv-x="562" d="M271 347L157 232L111 0H34L174 698H251L204 464L170 325H180L294 454L519 698H616L329 393L497 0H413L271 347Z" />
<glyph unicode="L" glyph-name="L" horiz-adv-x="439" d="M34 0L174 698H251L124 67H382L368 0H34Z" />
<glyph unicode="M" glyph-name="M" horiz-adv-x="718" d="M601 481L631 608H621L546 481L341 171L260 481L231 608H221L205 481L109 0H34L174 698H270L339 427L361 298H371L442 427L614 698H720L580 0H505L601 481Z" />
<glyph unicode="N" glyph-name="N" horiz-adv-x="628" d="M267 453L232 608H222L200 453L109 0H34L174 698H267L397 245L432 90H442L464 245L555 698H630L490 0H397L267 453Z" />
<glyph unicode="O" glyph-name="O" horiz-adv-x="612" d="M271 -12Q213 -12 171 6T102 55T61 129T47 219Q47 239 49 262T54 310T62 358T71 401Q86 471 112 528T176 625T264 688T377 710Q435 710 477 692T546 643T587 569T601 479Q601 459 599 436T594 388T586
340T577 297Q562 227 536 170T472 73T384 10T271 -12ZM278 56Q368 56 418 112T488 270L514 400Q519 423 520 442T522 477Q522 555 486 598T370 642Q280 642 230 586T160 428L134 298Q129 275 128 256T126 221Q126 143 162 100T278 56Z" />
<glyph unicode="P" glyph-name="P" horiz-adv-x="539" d="M34 0L174 698H405Q487 698 520 656T554 540Q554 489 540 445T498 370T431 320T343 302H171L111 0H34ZM185 369H355Q396 369 424 393T461 463Q465 485 468 500T472 525T474 543T475 560Q475 592 458 611T398
631H237L185 369Z" />
<glyph unicode="Q" glyph-name="Q" horiz-adv-x="612" d="M356 -164H254Q204 -164 204 -119Q204 -111 205 -104T208 -89L224 -8Q179 -1 146 19T90 69T58 138T47 219Q47 239 49 262T54 310T62 358T71 401Q86 471 112 528T176 625T264 688T377 710Q435 710 477 692T546
643T587 569T601 479Q601 459 599 436T594 388T586 340T577 297Q563 231 539 176T480 81T400 17T298 -11L280 -100H369L356 -164ZM278 56Q368 56 418 112T488 270L514 400Q519 423 520 442T522 477Q522 555 486 598T370 642Q280 642 230 586T160 428L134 298Q129
275 128 256T126 221Q126 143 162 100T278 56Z" />
<glyph unicode="R" glyph-name="R" horiz-adv-x="571" d="M111 0H34L174 698H405Q487 698 520 656T554 540Q554 495 543 456T510 385T457 334T386 306L473 0H391L311 302H171L111 0ZM355 369Q396 369 424 393T461 463Q465 485 468 500T472 525T474 543T475 560Q475
592 458 611T398 631H237L185 369H355Z" />
<glyph unicode="S" glyph-name="S" horiz-adv-x="525" d="M219 -12Q145 -12 91 17T7 113L67 154Q93 100 130 78T220 56Q300 56 343 98T387 206Q387 254 364 279T295 321L233 344Q169 367 135 407T100 513Q100 555 115 591T158 653T228 695T322 710Q399 710 446
680T523 601L467 556Q443 597 409 619T314 642Q251 642 214 613T176 520Q176 475 197 450T264 408L326 385Q358 373 383 358T426 321T453 273T463 209Q463 161 447 121T399 51T322 5T219 -12Z" />
<glyph unicode="T" glyph-name="T" horiz-adv-x="499" d="M362 631L236 0H159L285 631H95L109 698H566L552 631H362Z" />
<glyph unicode="U" glyph-name="U" horiz-adv-x="598" d="M245 698L155 249Q150 224 149 209T148 183Q148 112 179 84T266 56Q301 56 328 65T377 99T414 164T443 268L529 698H606L518 260Q502 179 479 127T425 44T354 1T263 -12Q219 -12 184 -3T125 28T87 85T73
172Q73 189 75 215T83 274L168 698H245Z" />
<glyph unicode="V" glyph-name="V" horiz-adv-x="529" d="M165 0L104 698H180L215 247L221 67H231L308 247L521 698H603L261 0H165Z" />
<glyph unicode="W" glyph-name="W" horiz-adv-x="783" d="M115 0L104 698H180V247L173 67H182L243 247L428 698H526L534 247L526 67H536L595 247L774 698H856L566 0H468L462 374L469 621H459L364 367L213 0H115Z" />
<glyph unicode="X" glyph-name="X" horiz-adv-x="556" d="M468 0H388L287 292H277L68 0H-20L251 359L128 698H208L307 411H317L524 698H612L343 344L468 0Z" />
<glyph unicode="Y" glyph-name="Y" horiz-adv-x="519" d="M170 0L224 270L102 698H180L273 353H283L511 698H599L301 270L247 0H170Z" />
<glyph unicode="Z" glyph-name="Z" horiz-adv-x="517" d="M426 0H-13L2 73L453 631H119L133 698H556L541 625L90 67H440L426 0Z" />
<glyph unicode="[" glyph-name="bracketleft" horiz-adv-x="299" d="M10 -138L190 760H336L324 702H244L88 -80H168L156 -138H10Z" />
<glyph unicode="\" glyph-name="backslash" horiz-adv-x="326" d="M178 -151L128 740H192L242 -151H178Z" />
<glyph unicode="]" glyph-name="bracketright" horiz-adv-x="298" d="M311 760L131 -138H-15L-3 -80H77L233 702H153L165 760H311Z" />
<glyph unicode="^" glyph-name="asciicircum" horiz-adv-x="540" d="M445 297L355 627H345L122 297L70 333L319 698H397L505 317L445 297Z" />
<glyph unicode="_" glyph-name="underscore" horiz-adv-x="490" d="M-48 -161L-36 -100H402L390 -161H-48Z" />
<glyph unicode="`" glyph-name="grave" horiz-adv-x="540" d="M192 750L260 779L313 605L269 585L192 750Z" />
<glyph unicode="a" glyph-name="a" horiz-adv-x="523" d="M371 0Q347 0 334 12T320 47Q320 55 321 62T324 77L331 111H321Q275 -12 173 -12Q106 -12 72 35T38 158Q38 185 42 220T52 287Q75 404 129 466T268 528Q313 528 346 504T385 432H395L412 516H486L396 64H460L447
0H371ZM202 54Q231 54 253 66T295 104Q315 129 331 159T352 216L380 356Q383 373 378 392T359 426T326 452T279 463Q222 463 188 428T139 325L116 209Q113 195 113 182T112 159Q112 104 136 79T202 54Z" />
<glyph unicode="b" glyph-name="b" horiz-adv-x="515" d="M177 740H251L184 405H194Q240 528 342 528Q409 528 443 481T477 358Q477 331 473 296T463 229Q440 112 386 50T247 -12Q202 -12 169 12T130 84H120L103 0H29L177 740ZM236 53Q293 53 327 88T376 191L399
307Q402 321 402 334T403 357Q403 412 379 437T313 462Q284 462 262 450T220 412Q200 387 184 357T163 300L135 160Q132 143 137 124T156 89T189 63T236 53Z" />
<glyph unicode="c" glyph-name="c" horiz-adv-x="440" d="M205 -12Q123 -12 81 37T38 167Q38 193 42 227T52 291Q75 403 133 465T280 528Q346 528 382 495T433 409L370 380Q353 463 276 463Q222 463 187 429T139 329L116 213Q114 201 113 189T112 167Q112 107
139 80T212 53Q261 53 289 80T334 156L394 126Q365 60 319 24T205 -12Z" />
<glyph unicode="d" glyph-name="d" horiz-adv-x="529" d="M371 0Q347 0 334 12T320 47Q320 55 321 62T324 77L331 111H321Q275 -12 173 -12Q106 -12 72 35T38 158Q38 185 42 220T52 287Q75 404 129 466T268 528Q313 528 346 504T385 432H395L457 740H531L396 64H460L447
0H371ZM202 54Q231 54 253 66T295 104Q315 129 331 159T352 216L380 356Q383 373 378 392T359 426T326 452T279 463Q222 463 188 428T139 325L116 209Q113 195 113 182T112 159Q112 104 136 79T202 54Z" />
<glyph unicode="e" glyph-name="e" horiz-adv-x="460" d="M210 -12Q123 -12 81 37T38 167Q38 193 42 227T52 291Q75 406 136 467T287 528Q319 528 347 520T395 494T428 452T440 391Q440 303 360 264T118 222Q113 203 113 191T112 168Q112 108 138 81T215 53Q264
53 300 76T360 137L407 95Q376 44 325 16T210 -12ZM280 465Q223 465 188 430T139 329L129 280Q198 283 243 290T316 309T354 340T365 386Q365 410 358 425T339 449T312 461T280 465Z" />
<glyph unicode="f" glyph-name="f" horiz-adv-x="293" d="M102 -129Q94 -167 76 -183T19 -200H-68L-55 -136H27L144 452H69L82 516H157L188 669Q196 707 214 723T271 740H367L354 676H263L231 516H322L309 452H218L102 -129Z" />
<glyph unicode="g" glyph-name="g" horiz-adv-x="468" d="M417 -39Q417 -124 356 -168T163 -212Q70 -212 27 -187T-17 -101Q-17 -59 6 -28T78 14L80 24Q60 32 52 47T43 86Q43 126 67 148T138 180L140 190Q106 204 93 237T79 314Q79 361 93 400T132 467T195 512T278
528Q333 528 368 508L374 538Q378 558 392 569T430 581H501L488 516H407L400 481Q414 462 420 434T427 370Q427 329 413 293T373 230T308 188T221 172Q212 172 202 172T183 174Q149 169 130 155T111 114Q111 93 124 85T164 76H283Q358 76 387 47T417 -39ZM341 -53Q341
-21 327 -7T275 7H108Q82 -4 69 -24T55 -77Q55 -112 73 -132T142 -152H199Q273 -152 307 -128T341 -53ZM236 230Q286 230 310 256T345 331Q350 351 352 369T354 398Q354 430 335 449T271 469Q218 469 195 442T161 368Q156 348 154 330T152 301Q152 269 171 250T236
230Z" />
<glyph unicode="h" glyph-name="h" horiz-adv-x="507" d="M177 740H251L186 415H196Q218 473 255 500T344 528Q399 528 427 493T456 394Q456 378 454 360T446 320L395 64H459L446 0H368Q319 0 319 47Q319 55 320 62T323 77L372 322Q380 360 380 388Q380 428 362
445T311 462Q254 462 220 421Q199 395 184 362T163 300L103 0H29L177 740Z" />
<glyph unicode="i" glyph-name="i" horiz-adv-x="248" d="M195 641Q177 641 166 649T155 676Q155 685 159 700Q164 717 176 728T211 739Q229 739 240 731T251 704Q251 695 247 680Q242 663 230 652T195 641ZM90 0Q40 0 40 45Q40 53 41 60T44 75L132 516H206L116
64H180L167 0H90Z" />
<glyph unicode="j" glyph-name="j" horiz-adv-x="243" d="M137 516H211L82 -129Q74 -167 55 -183T-2 -200H-80L-67 -136H7L137 516ZM200 641Q182 641 171 649T160 676Q160 685 164 700Q169 717 181 728T216 739Q234 739 245 731T256 704Q256 695 252 680Q247 663
235 652T200 641Z" />
<glyph unicode="k" glyph-name="k" horiz-adv-x="475" d="M177 740H251L177 372L148 259H156L245 360L401 516H491L281 306L367 64H424L411 0H358Q334 0 320 10T299 41L220 267L140 186L103 0H29L177 740Z" />
<glyph unicode="l" glyph-name="l" horiz-adv-x="248" d="M89 0Q39 0 39 45Q39 53 40 60T43 75L176 740H250L115 64H184L171 0H89Z" />
<glyph unicode="m" glyph-name="m" horiz-adv-x="765" d="M29 0L132 516H206L186 415H196Q239 528 338 528Q385 528 411 499T442 415H452Q474 474 513 501T605 528Q657 528 684 493T711 394Q711 378 709 360T701 320L650 64H714L701 0H623Q574 0 574 47Q574 55
575 62T578 77L627 322Q635 360 635 388Q635 428 618 445T572 462Q520 462 487 421Q466 395 451 362T430 300L370 0H296L360 322Q368 360 368 388Q368 428 351 445T305 462Q253 462 220 421Q199 395 184 362T163 300L103 0H29Z" />
<glyph unicode="n" glyph-name="n" horiz-adv-x="510" d="M29 0L132 516H206L186 415H196Q218 473 255 500T344 528Q399 528 427 493T456 394Q456 378 454 360T446 320L395 64H459L446 0H368Q319 0 319 47Q319 55 320 62T323 77L372 322Q380 360 380 388Q380 428
362 445T311 462Q254 462 220 421Q199 395 184 362T163 300L103 0H29Z" />
<glyph unicode="o" glyph-name="o" horiz-adv-x="491" d="M207 -12Q123 -12 81 37T38 167Q38 193 42 227T52 291Q75 405 134 466T284 528Q326 528 357 515T410 479T442 422T453 349Q453 323 449 289T439 225Q416 111 357 50T207 -12ZM213 53Q270 53 304 87T352
187L375 303Q377 315 378 327T379 348Q379 408 353 435T278 463Q221 463 187 429T139 329L116 213Q114 201 113 189T112 168Q112 108 138 81T213 53Z" />
<glyph unicode="p" glyph-name="p" horiz-adv-x="519" d="M136 516H210L188 405H198Q244 528 346 528Q413 528 447 481T481 358Q481 331 477 296T467 229Q444 112 390 50T251 -12Q206 -12 173 12T134 84H124L67 -200H-7L136 516ZM240 53Q297 53 331 88T380 191L403
307Q406 321 406 334T407 357Q407 412 383 437T317 462Q288 462 266 450T224 412Q204 387 188 357T167 300L139 160Q136 143 141 124T160 89T193 63T240 53Z" />
<glyph unicode="q" glyph-name="q" horiz-adv-x="515" d="M331 111H321Q275 -12 173 -12Q106 -12 72 35T38 158Q38 185 42 220T52 287Q75 404 129 466T268 528Q313 528 346 504T385 432H395L412 516H486L343 -200H269L331 111ZM202 54Q231 54 253 66T295 104Q315
129 331 159T352 216L380 356Q383 373 378 392T359 426T326 452T279 463Q222 463 188 428T139 325L116 209Q113 195 113 182T112 159Q112 104 136 79T202 54Z" />
<glyph unicode="r" glyph-name="r" horiz-adv-x="336" d="M29 0L132 516H206L186 415H196Q234 516 330 516H365L350 440H306Q246 440 212 406T165 309L103 0H29Z" />
<glyph unicode="s" glyph-name="s" horiz-adv-x="429" d="M182 -12Q122 -12 80 12T10 82L61 126Q86 88 113 70T183 51Q231 51 261 75T291 147Q291 172 279 191T228 223L187 237Q165 244 144 253T106 278T79 315T68 370Q68 404 79 432T114 482T171 515T249 527Q300
527 333 510T397 452L346 408Q330 433 307 448T241 464Q190 464 166 442T141 379Q141 352 154 334T201 304L243 290Q270 281 291 271T329 244T353 206T362 152Q362 112 348 82T310 30T253 -1T182 -12Z" />
<glyph unicode="t" glyph-name="t" horiz-adv-x="293" d="M102 0Q52 0 52 45Q52 53 53 60T56 75L131 452H63L76 516H112Q136 516 144 524T157 558L177 658H247L218 516H316L303 452H205L128 64H221L208 0H102Z" />
<glyph unicode="u" glyph-name="u" horiz-adv-x="510" d="M199 516L135 194Q127 156 127 128Q127 88 144 71T194 54Q248 54 282 95Q303 121 318 154T339 216L399 516H473L383 64H447L434 0H356Q307 0 307 47Q307 55 308 62T311 77L316 101H306Q263 -12 160 -12Q106
-12 79 23T51 122Q51 138 53 156T61 196L125 516H199Z" />
<glyph unicode="v" glyph-name="v" horiz-adv-x="434" d="M120 0L57 516H129L160 242L169 64H179L256 242L392 516H468L209 0H120Z" />
<glyph unicode="w" glyph-name="w" horiz-adv-x="666" d="M66 516H138L143 242L142 64H152L220 242L336 516H428L438 242L437 64H447L515 242L626 516H697L480 0H380L374 289L375 450H365L306 286L182 0H82L66 516Z" />
<glyph unicode="x" glyph-name="x" horiz-adv-x="452" d="M-29 0L185 270L79 516H159L236 320H246L400 516H484L274 255L383 0H303L223 205H213L55 0H-29Z" />
<glyph unicode="y" glyph-name="y" horiz-adv-x="447" d="M403 516H482L149 -143Q132 -175 113 -187T61 -200H-21L-8 -136H78L134 -23L71 516H143L174 242L182 64H192L269 242L403 516Z" />
<glyph unicode="z" glyph-name="z" horiz-adv-x="412" d="M-7 0L5 60L322 452H83L96 516H422L410 456L93 64H345L332 0H-7Z" />
<glyph unicode="{" glyph-name="braceleft" horiz-adv-x="303" d="M85 -138Q60 -138 47 -126T34 -96Q34 -89 35 -81T39 -58L90 196Q94 213 94 227Q94 252 75 263T24 274L39 348Q82 348 103 361T133 411L191 701Q203 760 248 760H349L337 702H257L201 419Q192 375
168 348T87 313L85 301Q121 293 140 276T160 228Q160 219 158 208T154 186L101 -80H181L169 -138H85Z" />
<glyph unicode="|" glyph-name="bar" horiz-adv-x="294" d="M37 -138L217 760H280L100 -138H37Z" />
<glyph unicode="}" glyph-name="braceright" horiz-adv-x="303" d="M-12 -80H68L124 203Q133 246 157 273T238 309L240 321Q204 329 185 346T165 394Q165 403 167 414T171 436L224 702H144L156 760H240Q265 760 278 748T291 718Q291 711 290 703T286 680L235 426Q231
409 231 395Q231 370 250 359T301 348L286 274Q243 274 222 261T192 211L134 -79Q122 -138 77 -138H-24L-12 -80Z" />
<glyph unicode="~" glyph-name="asciitilde" horiz-adv-x="540" d="M370 238Q338 238 314 248T263 276Q241 290 220 300T170 310Q149 310 131 302T90 276L68 318Q90 342 116 357T184 372Q216 372 240 362T291 334Q313 320 334 310T384 300Q405 300 423 308T464
334L486 292Q464 268 438 253T370 238Z" />
<glyph unicode="&#xa0;" glyph-name="uni00A0" horiz-adv-x="212" />
<glyph unicode="&#xa1;" glyph-name="exclamdown" horiz-adv-x="256" d="M2 -182L43 23L125 333H161L122 23L81 -182H2ZM156 410Q133 410 121 419T108 448Q108 462 113 484Q118 504 132 516T178 528Q201 528 213 519T226 490Q226 476 221 454Q216 434 202 422T156 410Z" />
<glyph unicode="&#xa2;" glyph-name="cent" horiz-adv-x="449" d="M153 -5Q96 9 67 55T38 167Q38 193 42 227T52 291Q73 396 126 458T260 527L281 630H345L323 523Q368 512 394 482T433 409L370 380Q357 444 309 459L227 53Q269 58 294 85T334 156L394 126Q365
63 322 28T216 -11L196 -114H132L153 -5ZM112 167Q112 122 127 97T169 60L249 461Q162 444 139 329L116 213Q114 201 113 189T112 167Z" />
<glyph unicode="&#xa3;" glyph-name="sterling" horiz-adv-x="528" d="M24 0L43 94Q74 106 93 129T122 179T136 235T140 288H61L74 351H138Q136 377 135 403T133 451Q133 510 149 558T194 639T267 691T364 710Q401 710 429 702T479 678T515 641T543 594L477 552Q468
573 458 590T435 618T403 636T359 643Q286 643 248 594T210 445Q210 423 211 399T214 351H399L386 288H216Q213 202 177 149T89 76L87 67H423L410 0H24Z" />
<glyph unicode="&#xa5;" glyph-name="yen" horiz-adv-x="538" d="M285 146L256 0H179L208 146H58L71 209H221L241 309H90L103 372H218L123 698H201L286 382H296L508 698H596L365 372H480L467 309H318L298 209H448L435 146H285Z" />
<glyph unicode="&#xa6;" glyph-name="brokenbar" horiz-adv-x="294" d="M146 406L217 760H280L209 406H146ZM37 -138L108 216H171L100 -138H37Z" />
<glyph unicode="&#xa7;" glyph-name="section" horiz-adv-x="512" d="M452 293Q452 228 416 190T325 142L323 134Q348 111 359 83T370 21Q370 -20 356 -52T315 -107T254 -142T175 -154Q129 -154 90 -140T24 -97L75 -45Q94 -65 121 -77T183 -89Q235 -89 265 -62T296
13Q296 45 282 67T233 104L172 127Q114 149 91 183T68 263Q68 328 104 366T195 414L197 422Q172 445 161 473T150 535Q150 575 164 607T205 663T266 698T345 710Q391 710 430 696T496 653L445 601Q426 621 399 633T337 645Q285 645 255 618T224 543Q224 511 237
489T287 452L348 429Q406 407 429 373T452 293ZM142 283Q142 239 163 216T220 180L295 152Q333 170 355 200T378 274Q378 317 357 340T300 376L225 404Q187 386 165 356T142 283Z" />
<glyph unicode="&#xa8;" glyph-name="dieresis" horiz-adv-x="540" d="M200 620Q160 620 160 649Q160 660 164 677Q169 700 181 709T220 718Q260 718 260 689Q260 678 256 661Q251 638 239 629T200 620ZM368 620Q328 620 328 649Q328 660 332 677Q337 700 349
709T388 718Q428 718 428 689Q428 678 424 661Q419 638 407 629T368 620Z" />
<glyph unicode="&#xa9;" glyph-name="copyright" horiz-adv-x="736" d="M344 43Q398 43 445 60T529 108T591 185T628 286Q639 342 644 371T649 419Q649 472 635 515T592 590T522 638T428 655Q374 655 327 638T243 590T181 513T144 412Q133 356 128 327T123 279Q123
226 137 183T180 108T250 60T344 43ZM335 -12Q272 -12 221 9T135 68T81 159T62 279Q62 313 67 351T81 420Q97 485 129 538T206 630T309 689T437 710Q500 710 551 689T637 630T691 539T710 419Q710 385 705 347T691 278Q674 213 643 160T566 68T463 9T335 -12ZM361
156Q302 156 270 191T238 283Q238 303 241 330T248 373Q263 451 307 496T415 542Q462 542 493 517T533 447L478 425Q470 457 456 471T414 485Q378 485 357 463T327 400L310 317Q307 300 307 284Q307 248 323 231T366 213Q394 213 417 231T455 281L500 244Q474 201
440 179T361 156Z" />
<glyph unicode="&#xaa;" glyph-name="ordfeminine" horiz-adv-x="353" d="M334 358H292Q272 358 264 366T256 390Q256 392 256 396T258 410H250Q237 383 213 367T150 350Q111 350 90 370T69 426Q69 489 106 520T216 551H283L289 581Q292 597 292 612Q292 638 280
650T236 662Q207 662 184 648T147 610L114 641Q134 668 166 689T244 710Q295 710 322 687T350 615Q350 605 349 595T345 570L313 410H345L334 358ZM208 508Q140 508 131 460Q127 437 127 431Q127 398 171 398Q206 398 233 416T265 462L274 508H208Z" />
<glyph unicode="&#xab;" glyph-name="guillemotleft" horiz-adv-x="453" d="M164 98L29 255L42 321L232 472L261 423L106 287L104 277L203 138L164 98ZM349 98L214 255L227 321L417 472L446 423L291 287L289 277L388 138L349 98Z" />
<glyph unicode="&#xac;" glyph-name="logicalnot" horiz-adv-x="540" d="M373 78L413 274H65L77 336H495L443 78H373Z" />
<glyph unicode="&#xad;" glyph-name="uni00AD" horiz-adv-x="347" d="M61 265L77 343H306L290 265H61Z" />
<glyph unicode="&#xae;" glyph-name="registered" horiz-adv-x="468" d="M259 298Q219 298 187 311T133 349T100 405T88 473Q88 525 103 568T146 643T215 692T306 710Q346 710 378 697T432 659T465 603T477 535Q477 483 462 440T419 365T350 316T259 298ZM263
335Q333 335 377 376T430 481Q434 508 435 517T436 534Q436 595 402 634T302 673Q232 673 188 632T135 527Q131 500 130 491T129 474Q129 413 163 374T263 335ZM235 400H197L239 609H318Q341 609 352 597T364 564Q364 535 352 512T315 484L341 400H302L280 481H252L235
400ZM301 511Q309 511 314 516T321 530Q327 564 327 567Q327 572 324 575T314 579H270L257 511H301Z" />
<glyph unicode="&#xaf;" glyph-name="overscore" horiz-adv-x="540" d="M174 702H420L408 640H162L174 702Z" />
<glyph unicode="&#xb0;" glyph-name="degree" horiz-adv-x="420" d="M244 384Q215 384 190 394T147 422T119 465T109 523Q109 563 122 597T158 656T215 695T288 710Q318 710 342 700T385 672T413 628T423 571Q423 531 410 497T374 438T317 399T244 384ZM252 441Q303
441 331 476T360 568Q360 606 339 629T279 653Q230 653 201 617T172 526Q172 488 193 465T252 441Z" />
<glyph unicode="&#xb1;" glyph-name="plusminus" horiz-adv-x="540" d="M218 169L255 352H81L93 414H267L304 597H374L337 414H511L499 352H325L288 169H218ZM10 0L22 62H440L428 0H10Z" />
<glyph unicode="&#xb2;" glyph-name="twosuperior" horiz-adv-x="320" d="M286 329H50L60 382L213 505Q241 528 251 543T266 578Q268 587 269 596T270 611Q270 631 256 643T219 656Q192 656 174 639T147 592L100 615Q114 654 144 679T227 704Q275 704 303 681T331
607Q331 569 312 539T248 472L125 375H297L286 329Z" />
<glyph unicode="&#xb3;" glyph-name="threesuperior" horiz-adv-x="320" d="M193 544Q231 544 244 558T261 591Q263 599 264 606T265 621Q265 635 253 646T218 657Q192 657 173 645T136 609L103 641Q124 669 152 686T225 704Q273 704 298 681T323 618Q323 571
299 549T239 521L238 515Q266 511 281 495T297 441Q297 385 261 354T162 323Q110 323 82 344T44 392L87 421Q95 398 112 384T164 370Q199 370 214 383T235 422Q237 433 238 440T239 455Q239 473 224 485T181 497H142L151 544H193Z" />
<glyph unicode="&#xb4;" glyph-name="acute" horiz-adv-x="540" d="M289 585L244 611L342 779L403 742L289 585Z" />
<glyph unicode="&#xb5;" glyph-name="mu" horiz-adv-x="514" d="M-14 -200L129 516H203L139 194Q131 156 131 128Q131 88 148 71T200 54Q227 54 248 64T286 95Q307 120 322 154T343 216L403 516H477L387 64H451L438 0H360Q311 0 311 47Q311 55 312 62T315 77L320
101H310Q290 47 255 18T178 -12Q149 -12 129 2T107 42H99L91 -44L60 -200H-14Z" />
<glyph unicode="&#xb6;" glyph-name="paragraph" horiz-adv-x="567" d="M218 304Q187 304 162 317T120 354T94 407T84 472Q84 524 99 566T143 637T211 682T297 698H580L567 635H510L353 -149H288L445 635H351L194 -149H127L218 304Z" />
<glyph unicode="&#xb7;" glyph-name="middot" horiz-adv-x="288" d="M141 245Q118 245 106 254T93 283Q93 297 98 319Q103 339 117 351T163 363Q186 363 198 354T211 325Q211 311 206 289Q201 269 187 257T141 245Z" />
<glyph unicode="&#xb8;" glyph-name="cedilla" horiz-adv-x="540" d="M255 -207Q220 -207 198 -196T166 -168L204 -130Q210 -141 222 -149T255 -157Q297 -157 297 -119Q297 -102 288 -95T255 -87H222L251 10H297L271 -72H279Q284 -64 291 -59T313 -54Q334 -54
345 -66T357 -110Q357 -161 329 -184T255 -207Z" />
<glyph unicode="&#xb9;" glyph-name="onesuperior" horiz-adv-x="320" d="M70 329L79 376H173L227 644L130 585L109 623L234 698H294L229 376H312L303 329H70Z" />
<glyph unicode="&#xba;" glyph-name="ordmasculine" horiz-adv-x="351" d="M204 350Q145 350 116 383T87 469Q87 487 89 508T96 553Q111 628 151 669T255 710Q314 710 343 677T372 591Q372 573 370 552T363 507Q348 432 308 391T204 350ZM208 398Q244 398 266
420T296 484L311 559Q314 574 314 588Q314 627 297 644T251 662Q215 662 193 640T163 576L148 501Q145 486 145 472Q145 433 162 416T208 398Z" />
<glyph unicode="&#xbb;" glyph-name="guillemotright" horiz-adv-x="453" d="M18 147L173 283L175 293L76 432L115 472L250 315L237 249L47 98L18 147ZM203 147L358 283L360 293L261 432L300 472L435 315L422 249L232 98L203 147Z" />
<glyph unicode="&#xbc;" glyph-name="onequarter" horiz-adv-x="736" d="M70 329L79 376H173L227 644L130 585L109 623L234 698H294L229 376H312L303 329H70ZM635 698H704L490 434H421L635 698ZM275 254H344L138 0H69L275 254ZM547 0L562 73H399L409 123L604 369H676L625
117H671L662 73H617L602 0H547ZM608 304H602L458 117H570L608 304Z" />
<glyph unicode="&#xbd;" glyph-name="onehalf" horiz-adv-x="736" d="M70 329L79 376H173L227 644L130 585L109 623L234 698H294L229 376H312L303 329H70ZM635 698H704L490 434H421L635 698ZM275 254H344L138 0H69L275 254ZM637 0H401L411 53L564 176Q592 199
602 214T617 249Q619 258 620 267T621 282Q621 302 607 314T570 327Q543 327 525 310T498 263L451 286Q465 325 495 350T578 375Q626 375 654 352T682 278Q682 240 663 210T599 143L476 46H648L637 0Z" />
<glyph unicode="&#xbe;" glyph-name="threequarters" horiz-adv-x="736" d="M193 544Q231 544 244 558T261 591Q263 599 264 606T265 621Q265 635 253 646T218 657Q192 657 173 645T136 609L103 641Q124 669 152 686T225 704Q273 704 298 681T323 618Q323 571
299 549T239 521L238 515Q266 511 281 495T297 441Q297 385 261 354T162 323Q110 323 82 344T44 392L87 421Q95 398 112 384T164 370Q199 370 214 383T235 422Q237 433 238 440T239 455Q239 473 224 485T181 497H142L151 544H193ZM635 698H704L490 434H421L635
698ZM275 254H344L138 0H69L275 254ZM547 0L562 73H399L409 123L604 369H676L625 117H671L662 73H617L602 0H547ZM608 304H602L458 117H570L608 304Z" />
<glyph unicode="&#xbf;" glyph-name="questiondown" horiz-adv-x="420" d="M142 -194Q64 -194 23 -154T-19 -38Q-19 56 35 118T183 199L205 310H277L244 144Q172 140 124 107T67 23Q65 10 63 -6T60 -34Q60 -76 82 -101T150 -127Q204 -127 233 -93T282 -5L346 -30Q317
-104 270 -149T142 -194ZM258 410Q235 410 223 419T210 448Q210 462 215 484Q220 504 234 516T280 528Q303 528 315 519T328 490Q328 476 323 454Q318 434 304 422T258 410Z" />
<glyph unicode="&#xc0;" glyph-name="Agrave" horiz-adv-x="559" d="M411 0L392 210H152L51 0H-31L315 698H419L489 0H411ZM363 534L358 631H348L306 534L185 275H386L363 534ZM293 920L361 949L414 775L370 755L293 920Z" />
<glyph unicode="&#xc1;" glyph-name="Aacute" horiz-adv-x="559" d="M411 0L392 210H152L51 0H-31L315 698H419L489 0H411ZM363 534L358 631H348L306 534L185 275H386L363 534ZM390 755L345 781L443 949L504 912L390 755Z" />
<glyph unicode="&#xc2;" glyph-name="Acircumflex" horiz-adv-x="559" d="M411 0L392 210H152L51 0H-31L315 698H419L489 0H411ZM363 534L358 631H348L306 534L185 275H386L363 534ZM441 935L517 788L476 761L394 879L266 761L227 791L358 935H441Z" />
<glyph unicode="&#xc3;" glyph-name="Atilde" horiz-adv-x="559" d="M411 0L392 210H152L51 0H-31L315 698H419L489 0H411ZM363 534L358 631H348L306 534L185 275H386L363 534ZM449 784Q427 784 411 792T382 810Q362 824 349 829T325 835Q309 835 297 828T270
807L245 844Q261 864 283 880T336 896Q358 896 374 888T403 870Q423 856 436 851T460 845Q476 845 488 852T515 873L540 836Q524 816 502 800T449 784Z" />
<glyph unicode="&#xc4;" glyph-name="Adieresis" horiz-adv-x="559" d="M411 0L392 210H152L51 0H-31L315 698H419L489 0H411ZM363 534L358 631H348L306 534L185 275H386L363 534ZM301 792Q261 792 261 821Q261 832 265 849Q270 872 282 881T321 890Q361 890 361
861Q361 850 357 833Q352 810 340 801T301 792ZM469 792Q429 792 429 821Q429 832 433 849Q438 872 450 881T489 890Q529 890 529 861Q529 850 525 833Q520 810 508 801T469 792Z" />
<glyph unicode="&#xc5;" glyph-name="Aring" horiz-adv-x="559" d="M411 0L392 210H152L51 0H-31L315 698H419L489 0H411ZM363 534L358 631H348L306 534L185 275H386L363 534ZM378 746Q336 746 311 768T286 843Q286 906 321 941T414 976Q456 976 481 954T506 879Q506
816 471 781T378 746ZM387 792Q415 792 427 804T444 833Q448 851 450 867T453 891Q453 909 441 919T404 930Q376 930 364 918T347 889Q343 871 341 855T338 831Q338 813 350 803T387 792Z" />
<glyph unicode="&#xc6;" glyph-name="AE" horiz-adv-x="808" d="M368 210H176L48 0H-39L405 698H836L822 631H529L481 388H746L732 321H467L416 67H727L713 0H326L368 210ZM440 631L223 275H381L453 631H440Z" />
<glyph unicode="&#xc7;" glyph-name="Ccedilla" horiz-adv-x="546" d="M336 -110Q336 -161 308 -184T234 -207Q199 -207 177 -196T145 -168L183 -130Q189 -141 201 -149T234 -157Q276 -157 276 -119Q276 -102 267 -95T234 -87H201L224 -10Q178 -4 145 15T90 65T58
134T47 219Q47 239 49 262T54 310T62 358T71 401Q86 473 110 530T171 627T256 688T365 710Q408 710 441 699T500 666T542 616T567 553L496 522Q487 580 454 611T358 642Q273 642 227 586T160 428L134 298Q129 275 128 256T126 221Q126 143 159 100T266 56Q332 56
374 90T441 187L505 155Q467 79 409 35T269 -12L250 -72H258Q263 -64 270 -59T292 -54Q313 -54 324 -66T336 -110Z" />
<glyph unicode="&#xc8;" glyph-name="Egrave" horiz-adv-x="516" d="M34 0L174 698H544L530 631H237L189 388H454L440 321H175L124 67H435L421 0H34ZM288 920L356 949L409 775L365 755L288 920Z" />
<glyph unicode="&#xc9;" glyph-name="Eacute" horiz-adv-x="516" d="M34 0L174 698H544L530 631H237L189 388H454L440 321H175L124 67H435L421 0H34ZM385 755L340 781L438 949L499 912L385 755Z" />
<glyph unicode="&#xca;" glyph-name="Ecircumflex" horiz-adv-x="516" d="M34 0L174 698H544L530 631H237L189 388H454L440 321H175L124 67H435L421 0H34ZM436 935L512 788L471 761L389 879L261 761L222 791L353 935H436Z" />
<glyph unicode="&#xcb;" glyph-name="Edieresis" horiz-adv-x="516" d="M34 0L174 698H544L530 631H237L189 388H454L440 321H175L124 67H435L421 0H34ZM296 792Q256 792 256 821Q256 832 260 849Q265 872 277 881T316 890Q356 890 356 861Q356 850 352 833Q347
810 335 801T296 792ZM464 792Q424 792 424 821Q424 832 428 849Q433 872 445 881T484 890Q524 890 524 861Q524 850 520 833Q515 810 503 801T464 792Z" />
<glyph unicode="&#xcc;" glyph-name="Igrave" horiz-adv-x="359" d="M6 0L19 64H102L216 634H133L146 698H389L376 634H293L179 64H262L249 0H6ZM198 920L266 949L319 775L275 755L198 920Z" />
<glyph unicode="&#xcd;" glyph-name="Iacute" horiz-adv-x="359" d="M6 0L19 64H102L216 634H133L146 698H389L376 634H293L179 64H262L249 0H6ZM295 755L250 781L348 949L409 912L295 755Z" />
<glyph unicode="&#xce;" glyph-name="Icircumflex" horiz-adv-x="359" d="M6 0L19 64H102L216 634H133L146 698H389L376 634H293L179 64H262L249 0H6ZM346 935L422 788L381 761L299 879L171 761L132 791L263 935H346Z" />
<glyph unicode="&#xcf;" glyph-name="Idieresis" horiz-adv-x="359" d="M6 0L19 64H102L216 634H133L146 698H389L376 634H293L179 64H262L249 0H6ZM206 792Q166 792 166 821Q166 832 170 849Q175 872 187 881T226 890Q266 890 266 861Q266 850 262 833Q257 810
245 801T206 792ZM374 792Q334 792 334 821Q334 832 338 849Q343 872 355 881T394 890Q434 890 434 861Q434 850 430 833Q425 810 413 801T374 792Z" />
<glyph unicode="&#xd0;" glyph-name="Eth" horiz-adv-x="593" d="M109 337H30L42 395H121L182 698H358Q416 698 458 681T527 634T568 564T582 479Q582 459 580 436T575 388T567 340T558 297Q543 229 517 175T453 81T365 21T252 0H42L109 337ZM259 67Q350 67 399
120T469 270L495 400Q500 423 501 442T503 477Q503 550 467 590T351 631H245L198 395H310L298 337H186L132 67H259Z" />
<glyph unicode="&#xd1;" glyph-name="Ntilde" horiz-adv-x="628" d="M267 453L232 608H222L200 453L109 0H34L174 698H267L397 245L432 90H442L464 245L555 698H630L490 0H397L267 453ZM482 784Q460 784 444 792T415 810Q395 824 382 829T358 835Q342 835 330
828T303 807L278 844Q294 864 316 880T369 896Q391 896 407 888T436 870Q456 856 469 851T493 845Q509 845 521 852T548 873L573 836Q557 816 535 800T482 784Z" />
<glyph unicode="&#xd2;" glyph-name="Ograve" horiz-adv-x="612" d="M271 -12Q213 -12 171 6T102 55T61 129T47 219Q47 239 49 262T54 310T62 358T71 401Q86 471 112 528T176 625T264 688T377 710Q435 710 477 692T546 643T587 569T601 479Q601 459 599 436T594
388T586 340T577 297Q562 227 536 170T472 73T384 10T271 -12ZM278 56Q368 56 418 112T488 270L514 400Q519 423 520 442T522 477Q522 555 486 598T370 642Q280 642 230 586T160 428L134 298Q129 275 128 256T126 221Q126 143 162 100T278 56ZM319 920L387 949L440
775L396 755L319 920Z" />
<glyph unicode="&#xd3;" glyph-name="Oacute" horiz-adv-x="612" d="M271 -12Q213 -12 171 6T102 55T61 129T47 219Q47 239 49 262T54 310T62 358T71 401Q86 471 112 528T176 625T264 688T377 710Q435 710 477 692T546 643T587 569T601 479Q601 459 599 436T594
388T586 340T577 297Q562 227 536 170T472 73T384 10T271 -12ZM278 56Q368 56 418 112T488 270L514 400Q519 423 520 442T522 477Q522 555 486 598T370 642Q280 642 230 586T160 428L134 298Q129 275 128 256T126 221Q126 143 162 100T278 56ZM416 755L371 781L469
949L530 912L416 755Z" />
<glyph unicode="&#xd4;" glyph-name="Ocircumflex" horiz-adv-x="612" d="M271 -12Q213 -12 171 6T102 55T61 129T47 219Q47 239 49 262T54 310T62 358T71 401Q86 471 112 528T176 625T264 688T377 710Q435 710 477 692T546 643T587 569T601 479Q601 459 599 436T594
388T586 340T577 297Q562 227 536 170T472 73T384 10T271 -12ZM278 56Q368 56 418 112T488 270L514 400Q519 423 520 442T522 477Q522 555 486 598T370 642Q280 642 230 586T160 428L134 298Q129 275 128 256T126 221Q126 143 162 100T278 56ZM467 935L543 788L502
761L420 879L292 761L253 791L384 935H467Z" />
<glyph unicode="&#xd5;" glyph-name="Otilde" horiz-adv-x="612" d="M271 -12Q213 -12 171 6T102 55T61 129T47 219Q47 239 49 262T54 310T62 358T71 401Q86 471 112 528T176 625T264 688T377 710Q435 710 477 692T546 643T587 569T601 479Q601 459 599 436T594
388T586 340T577 297Q562 227 536 170T472 73T384 10T271 -12ZM278 56Q368 56 418 112T488 270L514 400Q519 423 520 442T522 477Q522 555 486 598T370 642Q280 642 230 586T160 428L134 298Q129 275 128 256T126 221Q126 143 162 100T278 56ZM475 784Q453 784
437 792T408 810Q388 824 375 829T351 835Q335 835 323 828T296 807L271 844Q287 864 309 880T362 896Q384 896 400 888T429 870Q449 856 462 851T486 845Q502 845 514 852T541 873L566 836Q550 816 528 800T475 784Z" />
<glyph unicode="&#xd6;" glyph-name="Odieresis" horiz-adv-x="612" d="M271 -12Q213 -12 171 6T102 55T61 129T47 219Q47 239 49 262T54 310T62 358T71 401Q86 471 112 528T176 625T264 688T377 710Q435 710 477 692T546 643T587 569T601 479Q601 459 599 436T594
388T586 340T577 297Q562 227 536 170T472 73T384 10T271 -12ZM278 56Q368 56 418 112T488 270L514 400Q519 423 520 442T522 477Q522 555 486 598T370 642Q280 642 230 586T160 428L134 298Q129 275 128 256T126 221Q126 143 162 100T278 56ZM327 792Q287 792
287 821Q287 832 291 849Q296 872 308 881T347 890Q387 890 387 861Q387 850 383 833Q378 810 366 801T327 792ZM495 792Q455 792 455 821Q455 832 459 849Q464 872 476 881T515 890Q555 890 555 861Q555 850 551 833Q546 810 534 801T495 792Z" />
<glyph unicode="&#xd7;" glyph-name="multiply" horiz-adv-x="540" d="M273 260L107 115L68 163L236 309L126 456L176 495L284 350L451 495L484 444L320 301L430 154L381 115L273 260Z" />
<glyph unicode="&#xd8;" glyph-name="Oslash" horiz-adv-x="612" d="M271 -12Q220 -12 182 2T116 41L47 -44L-1 -1L75 93Q61 120 54 152T47 219Q47 239 49 262T54 310T62 358T71 401Q86 471 112 528T176 625T264 688T377 710Q428 710 466 696T532 657L601 742L649
699L573 605Q587 578 594 546T601 479Q601 459 599 436T594 388T586 340T577 297Q562 227 536 170T472 73T384 10T271 -12ZM140 151L332 410L487 597Q448 642 370 642Q280 642 230 586T160 428L134 298Q129 275 128 256T126 221Q126 201 126 184T132 151H140ZM278
56Q368 56 418 112T488 270L514 400Q519 423 520 442T522 477Q522 497 522 515T516 547H508L316 288L161 101Q200 56 278 56Z" />
<glyph unicode="&#xd9;" glyph-name="Ugrave" horiz-adv-x="598" d="M245 698L155 249Q150 224 149 209T148 183Q148 112 179 84T266 56Q301 56 328 65T377 99T414 164T443 268L529 698H606L518 260Q502 179 479 127T425 44T354 1T263 -12Q219 -12 184 -3T125
28T87 85T73 172Q73 189 75 215T83 274L168 698H245ZM315 920L383 949L436 775L392 755L315 920Z" />
<glyph unicode="&#xda;" glyph-name="Uacute" horiz-adv-x="598" d="M245 698L155 249Q150 224 149 209T148 183Q148 112 179 84T266 56Q301 56 328 65T377 99T414 164T443 268L529 698H606L518 260Q502 179 479 127T425 44T354 1T263 -12Q219 -12 184 -3T125
28T87 85T73 172Q73 189 75 215T83 274L168 698H245ZM412 755L367 781L465 949L526 912L412 755Z" />
<glyph unicode="&#xdb;" glyph-name="Ucircumflex" horiz-adv-x="598" d="M245 698L155 249Q150 224 149 209T148 183Q148 112 179 84T266 56Q301 56 328 65T377 99T414 164T443 268L529 698H606L518 260Q502 179 479 127T425 44T354 1T263 -12Q219 -12 184 -3T125
28T87 85T73 172Q73 189 75 215T83 274L168 698H245ZM463 935L539 788L498 761L416 879L288 761L249 791L380 935H463Z" />
<glyph unicode="&#xdc;" glyph-name="Udieresis" horiz-adv-x="598" d="M245 698L155 249Q150 224 149 209T148 183Q148 112 179 84T266 56Q301 56 328 65T377 99T414 164T443 268L529 698H606L518 260Q502 179 479 127T425 44T354 1T263 -12Q219 -12 184 -3T125
28T87 85T73 172Q73 189 75 215T83 274L168 698H245ZM323 792Q283 792 283 821Q283 832 287 849Q292 872 304 881T343 890Q383 890 383 861Q383 850 379 833Q374 810 362 801T323 792ZM491 792Q451 792 451 821Q451 832 455 849Q460 872 472 881T511 890Q551 890
551 861Q551 850 547 833Q542 810 530 801T491 792Z" />
<glyph unicode="&#xdd;" glyph-name="Yacute" horiz-adv-x="519" d="M170 0L224 270L102 698H180L273 353H283L511 698H599L301 270L247 0H170ZM358 755L313 781L411 949L472 912L358 755Z" />
<glyph unicode="&#xde;" glyph-name="Thorn" horiz-adv-x="539" d="M34 0L174 698H251L222 554H376Q458 554 491 512T525 395Q525 343 511 300T469 224T402 174T314 156H142L111 0H34ZM156 223H326Q367 223 395 247T432 318Q436 340 439 355T443 380T445 398T446
415Q446 448 429 467T369 487H209L156 223Z" />
<glyph unicode="&#xdf;" glyph-name="germandbls" horiz-adv-x="586" d="M533 153Q533 74 487 31T364 -12Q306 -12 263 13T193 84L243 128Q265 93 293 72T365 51Q410 51 436 75T463 149Q463 175 452 190T410 219L379 232Q356 242 337 253T305 279T285 314T278
362Q278 436 327 478T469 521L474 546Q479 569 480 585T481 609Q481 651 456 670T377 690Q346 690 322 683T280 659T249 615T228 545L119 0H45L135 452H60L73 516H148L154 545Q177 654 236 703T385 752Q463 752 507 717T551 608Q551 599 550 581T545 546L528 462H485Q414
462 382 439T349 368Q349 341 360 326T397 300L428 287Q449 278 468 269T502 244T524 208T533 153Z" />
<glyph unicode="&#xe0;" glyph-name="agrave" horiz-adv-x="523" d="M371 0Q347 0 334 12T320 47Q320 55 321 62T324 77L331 111H321Q275 -12 173 -12Q106 -12 72 35T38 158Q38 185 42 220T52 287Q75 404 129 466T268 528Q313 528 346 504T385 432H395L412 516H486L396
64H460L447 0H371ZM202 54Q231 54 253 66T295 104Q315 129 331 159T352 216L380 356Q383 373 378 392T359 426T326 452T279 463Q222 463 188 428T139 325L116 209Q113 195 113 182T112 159Q112 104 136 79T202 54ZM211 750L279 779L332 605L288 585L211 750Z" />
<glyph unicode="&#xe1;" glyph-name="aacute" horiz-adv-x="523" d="M371 0Q347 0 334 12T320 47Q320 55 321 62T324 77L331 111H321Q275 -12 173 -12Q106 -12 72 35T38 158Q38 185 42 220T52 287Q75 404 129 466T268 528Q313 528 346 504T385 432H395L412 516H486L396
64H460L447 0H371ZM202 54Q231 54 253 66T295 104Q315 129 331 159T352 216L380 356Q383 373 378 392T359 426T326 452T279 463Q222 463 188 428T139 325L116 209Q113 195 113 182T112 159Q112 104 136 79T202 54ZM308 585L263 611L361 779L422 742L308 585Z" />
<glyph unicode="&#xe2;" glyph-name="acircumflex" horiz-adv-x="523" d="M371 0Q347 0 334 12T320 47Q320 55 321 62T324 77L331 111H321Q275 -12 173 -12Q106 -12 72 35T38 158Q38 185 42 220T52 287Q75 404 129 466T268 528Q313 528 346 504T385 432H395L412
516H486L396 64H460L447 0H371ZM202 54Q231 54 253 66T295 104Q315 129 331 159T352 216L380 356Q383 373 378 392T359 426T326 452T279 463Q222 463 188 428T139 325L116 209Q113 195 113 182T112 159Q112 104 136 79T202 54ZM360 765L436 618L395 591L313 709L185
591L146 621L277 765H360Z" />
<glyph unicode="&#xe3;" glyph-name="atilde" horiz-adv-x="523" d="M371 0Q347 0 334 12T320 47Q320 55 321 62T324 77L331 111H321Q275 -12 173 -12Q106 -12 72 35T38 158Q38 185 42 220T52 287Q75 404 129 466T268 528Q313 528 346 504T385 432H395L412 516H486L396
64H460L447 0H371ZM202 54Q231 54 253 66T295 104Q315 129 331 159T352 216L380 356Q383 373 378 392T359 426T326 452T279 463Q222 463 188 428T139 325L116 209Q113 195 113 182T112 159Q112 104 136 79T202 54ZM367 613Q345 613 329 621T300 639Q280 653 267
658T243 664Q227 664 215 657T188 636L163 673Q179 693 201 709T254 725Q276 725 292 717T321 699Q341 685 354 680T378 674Q394 674 406 681T433 702L458 665Q442 645 420 629T367 613Z" />
<glyph unicode="&#xe4;" glyph-name="adieresis" horiz-adv-x="523" d="M371 0Q347 0 334 12T320 47Q320 55 321 62T324 77L331 111H321Q275 -12 173 -12Q106 -12 72 35T38 158Q38 185 42 220T52 287Q75 404 129 466T268 528Q313 528 346 504T385 432H395L412
516H486L396 64H460L447 0H371ZM202 54Q231 54 253 66T295 104Q315 129 331 159T352 216L380 356Q383 373 378 392T359 426T326 452T279 463Q222 463 188 428T139 325L116 209Q113 195 113 182T112 159Q112 104 136 79T202 54ZM219 620Q179 620 179 649Q179 660
183 677Q188 700 200 709T239 718Q279 718 279 689Q279 678 275 661Q270 638 258 629T219 620ZM387 620Q347 620 347 649Q347 660 351 677Q356 700 368 709T407 718Q447 718 447 689Q447 678 443 661Q438 638 426 629T387 620Z" />
<glyph unicode="&#xe5;" glyph-name="aring" horiz-adv-x="523" d="M371 0Q347 0 334 12T320 47Q320 55 321 62T324 77L331 111H321Q275 -12 173 -12Q106 -12 72 35T38 158Q38 185 42 220T52 287Q75 404 129 466T268 528Q313 528 346 504T385 432H395L412 516H486L396
64H460L447 0H371ZM202 54Q231 54 253 66T295 104Q315 129 331 159T352 216L380 356Q383 373 378 392T359 426T326 452T279 463Q222 463 188 428T139 325L116 209Q113 195 113 182T112 159Q112 104 136 79T202 54ZM296 576Q254 576 229 598T204 673Q204 736 239
771T332 806Q374 806 399 784T424 709Q424 646 389 611T296 576ZM305 622Q333 622 345 634T362 663Q366 681 368 697T371 721Q371 739 359 749T322 760Q294 760 282 748T265 719Q261 701 259 685T256 661Q256 643 268 633T305 622Z" />
<glyph unicode="&#xe6;" glyph-name="ae" horiz-adv-x="727" d="M170 52Q218 52 254 78T299 149L316 230L229 228Q194 227 171 223T133 210T110 188T99 157Q95 137 94 130T93 115Q93 52 170 52ZM546 465Q434 465 406 329L398 290Q463 291 507 297T580 315T620
347T632 395Q632 427 610 446T546 465ZM151 -12Q18 -12 18 105Q18 194 67 236T223 282L326 286L338 345Q340 354 341 363T342 381Q342 463 251 463Q209 463 180 446T127 389L83 431Q109 476 157 501T262 527Q373 527 388 430H398Q424 481 466 504T563 528Q596 528
622 519T667 492T696 450T707 398Q707 355 689 325T632 274T533 245T387 234Q383 214 381 198T379 168Q379 53 482 53Q574 53 627 137L674 95Q645 45 593 17T480 -12Q420 -12 379 17T326 94H316Q294 43 251 16T151 -12Z" />
<glyph unicode="&#xe7;" glyph-name="ccedilla" horiz-adv-x="440" d="M280 528Q346 528 382 495T433 409L370 380Q353 463 276 463Q222 463 187 429T139 329L116 213Q114 201 113 189T112 167Q112 107 139 80T212 53Q261 53 289 80T334 156L394 126Q367 64 326
29T224 -11L205 -72H213Q218 -64 225 -59T247 -54Q268 -54 279 -66T291 -110Q291 -161 263 -184T189 -207Q154 -207 132 -196T100 -168L138 -130Q144 -141 156 -149T189 -157Q231 -157 231 -119Q231 -102 222 -95T189 -87H156L179 -11Q110 -3 74 45T38 167Q38 193
42 227T52 291Q75 403 133 465T280 528Z" />
<glyph unicode="&#xe8;" glyph-name="egrave" horiz-adv-x="460" d="M210 -12Q123 -12 81 37T38 167Q38 193 42 227T52 291Q75 406 136 467T287 528Q319 528 347 520T395 494T428 452T440 391Q440 303 360 264T118 222Q113 203 113 191T112 168Q112 108 138 81T215
53Q264 53 300 76T360 137L407 95Q376 44 325 16T210 -12ZM280 465Q223 465 188 430T139 329L129 280Q198 283 243 290T316 309T354 340T365 386Q365 410 358 425T339 449T312 461T280 465ZM216 750L284 779L337 605L293 585L216 750Z" />
<glyph unicode="&#xe9;" glyph-name="eacute" horiz-adv-x="460" d="M210 -12Q123 -12 81 37T38 167Q38 193 42 227T52 291Q75 406 136 467T287 528Q319 528 347 520T395 494T428 452T440 391Q440 303 360 264T118 222Q113 203 113 191T112 168Q112 108 138 81T215
53Q264 53 300 76T360 137L407 95Q376 44 325 16T210 -12ZM280 465Q223 465 188 430T139 329L129 280Q198 283 243 290T316 309T354 340T365 386Q365 410 358 425T339 449T312 461T280 465ZM313 585L268 611L366 779L427 742L313 585Z" />
<glyph unicode="&#xea;" glyph-name="ecircumflex" horiz-adv-x="460" d="M210 -12Q123 -12 81 37T38 167Q38 193 42 227T52 291Q75 406 136 467T287 528Q319 528 347 520T395 494T428 452T440 391Q440 303 360 264T118 222Q113 203 113 191T112 168Q112 108 138
81T215 53Q264 53 300 76T360 137L407 95Q376 44 325 16T210 -12ZM280 465Q223 465 188 430T139 329L129 280Q198 283 243 290T316 309T354 340T365 386Q365 410 358 425T339 449T312 461T280 465ZM365 765L441 618L400 591L318 709L190 591L151 621L282 765H365Z"
/>
<glyph unicode="&#xeb;" glyph-name="edieresis" horiz-adv-x="460" d="M210 -12Q123 -12 81 37T38 167Q38 193 42 227T52 291Q75 406 136 467T287 528Q319 528 347 520T395 494T428 452T440 391Q440 303 360 264T118 222Q113 203 113 191T112 168Q112 108 138
81T215 53Q264 53 300 76T360 137L407 95Q376 44 325 16T210 -12ZM280 465Q223 465 188 430T139 329L129 280Q198 283 243 290T316 309T354 340T365 386Q365 410 358 425T339 449T312 461T280 465ZM224 620Q184 620 184 649Q184 660 188 677Q193 700 205 709T244
718Q284 718 284 689Q284 678 280 661Q275 638 263 629T224 620ZM392 620Q352 620 352 649Q352 660 356 677Q361 700 373 709T412 718Q452 718 452 689Q452 678 448 661Q443 638 431 629T392 620Z" />
<glyph unicode="&#xec;" glyph-name="igrave" horiz-adv-x="248" d="M90 0Q40 0 40 45Q40 53 41 60T44 75L132 516H206L116 64H180L167 0H90ZM352 750L420 779L473 605L429 585L352 750Z" />
<glyph unicode="&#xed;" glyph-name="iacute" horiz-adv-x="248" d="M90 0Q40 0 40 45Q40 53 41 60T44 75L132 516H206L116 64H180L167 0H90ZM449 585L404 611L502 779L563 742L449 585Z" />
<glyph unicode="&#xee;" glyph-name="icircumflex" horiz-adv-x="248" d="M90 0Q40 0 40 45Q40 53 41 60T44 75L132 516H206L116 64H180L167 0H90ZM298 621L419 765H502L568 618L527 591L455 709L337 591L298 621Z" />
<glyph unicode="&#xef;" glyph-name="idieresis" horiz-adv-x="248" d="M90 0Q40 0 40 45Q40 53 41 60T44 75L132 516H206L116 64H180L167 0H90ZM517 620Q477 620 477 649Q477 660 481 677Q486 700 498 709T537 718Q577 718 577 689Q577 678 573 661Q568 638 556
629T517 620ZM369 620Q329 620 329 649Q329 660 333 677Q338 700 350 709T389 718Q429 718 429 689Q429 678 425 661Q420 638 408 629T369 620Z" />
<glyph unicode="&#xf0;" glyph-name="eth" horiz-adv-x="502" d="M382 655Q420 601 442 533T464 379Q464 336 458 292T444 213Q420 96 361 42T210 -12Q166 -12 134 1T80 36T48 90T37 157Q37 181 41 215T51 279Q73 387 126 445T258 504Q307 504 337 482T380 418H390Q388
462 374 513T325 617L245 562L219 604L296 656Q276 679 252 700T198 740H305Q330 719 351 694L436 752L462 710L382 655ZM217 53Q277 53 309 85T353 175L376 291Q378 303 379 315T380 336Q380 439 275 439Q215 439 182 407T138 317L115 201Q113 189 112 177T111
156Q111 53 217 53Z" />
<glyph unicode="&#xf1;" glyph-name="ntilde" horiz-adv-x="507" d="M29 0L132 516H206L186 415H196Q218 473 255 500T344 528Q399 528 427 493T456 394Q456 378 454 360T446 320L395 64H459L446 0H368Q319 0 319 47Q319 55 320 62T323 77L372 322Q380 360 380
388Q380 428 362 445T311 462Q254 462 220 421Q199 395 184 362T163 300L103 0H29ZM390 613Q368 613 352 621T323 639Q303 653 290 658T266 664Q250 664 238 657T211 636L186 673Q202 693 224 709T277 725Q299 725 315 717T344 699Q364 685 377 680T401 674Q417
674 429 681T456 702L481 665Q465 645 443 629T390 613Z" />
<glyph unicode="&#xf2;" glyph-name="ograve" horiz-adv-x="491" d="M207 -12Q123 -12 81 37T38 167Q38 193 42 227T52 291Q75 405 134 466T284 528Q326 528 357 515T410 479T442 422T453 349Q453 323 449 289T439 225Q416 111 357 50T207 -12ZM213 53Q270 53
304 87T352 187L375 303Q377 315 378 327T379 348Q379 408 353 435T278 463Q221 463 187 429T139 329L116 213Q114 201 113 189T112 168Q112 108 138 81T213 53ZM224 750L292 779L345 605L301 585L224 750Z" />
<glyph unicode="&#xf3;" glyph-name="oacute" horiz-adv-x="491" d="M207 -12Q123 -12 81 37T38 167Q38 193 42 227T52 291Q75 405 134 466T284 528Q326 528 357 515T410 479T442 422T453 349Q453 323 449 289T439 225Q416 111 357 50T207 -12ZM213 53Q270 53
304 87T352 187L375 303Q377 315 378 327T379 348Q379 408 353 435T278 463Q221 463 187 429T139 329L116 213Q114 201 113 189T112 168Q112 108 138 81T213 53ZM321 585L276 611L374 779L435 742L321 585Z" />
<glyph unicode="&#xf4;" glyph-name="ocircumflex" horiz-adv-x="491" d="M207 -12Q123 -12 81 37T38 167Q38 193 42 227T52 291Q75 405 134 466T284 528Q326 528 357 515T410 479T442 422T453 349Q453 323 449 289T439 225Q416 111 357 50T207 -12ZM213 53Q270
53 304 87T352 187L375 303Q377 315 378 327T379 348Q379 408 353 435T278 463Q221 463 187 429T139 329L116 213Q114 201 113 189T112 168Q112 108 138 81T213 53ZM373 765L449 618L408 591L326 709L198 591L159 621L290 765H373Z" />
<glyph unicode="&#xf5;" glyph-name="otilde" horiz-adv-x="491" d="M207 -12Q123 -12 81 37T38 167Q38 193 42 227T52 291Q75 405 134 466T284 528Q326 528 357 515T410 479T442 422T453 349Q453 323 449 289T439 225Q416 111 357 50T207 -12ZM213 53Q270 53
304 87T352 187L375 303Q377 315 378 327T379 348Q379 408 353 435T278 463Q221 463 187 429T139 329L116 213Q114 201 113 189T112 168Q112 108 138 81T213 53ZM380 613Q358 613 342 621T313 639Q293 653 280 658T256 664Q240 664 228 657T201 636L176 673Q192
693 214 709T267 725Q289 725 305 717T334 699Q354 685 367 680T391 674Q407 674 419 681T446 702L471 665Q455 645 433 629T380 613Z" />
<glyph unicode="&#xf6;" glyph-name="odieresis" horiz-adv-x="491" d="M207 -12Q123 -12 81 37T38 167Q38 193 42 227T52 291Q75 405 134 466T284 528Q326 528 357 515T410 479T442 422T453 349Q453 323 449 289T439 225Q416 111 357 50T207 -12ZM213 53Q270
53 304 87T352 187L375 303Q377 315 378 327T379 348Q379 408 353 435T278 463Q221 463 187 429T139 329L116 213Q114 201 113 189T112 168Q112 108 138 81T213 53ZM232 620Q192 620 192 649Q192 660 196 677Q201 700 213 709T252 718Q292 718 292 689Q292 678
288 661Q283 638 271 629T232 620ZM400 620Q360 620 360 649Q360 660 364 677Q369 700 381 709T420 718Q460 718 460 689Q460 678 456 661Q451 638 439 629T400 620Z" />
<glyph unicode="&#xf7;" glyph-name="divide" horiz-adv-x="540" d="M65 274L77 336H495L483 274H65ZM233 61Q207 61 196 69T185 94Q185 100 186 107T189 122Q194 148 208 158T252 169Q278 169 289 161T300 136Q300 130 299 123T296 108Q291 82 277 72T233 61ZM308
441Q282 441 271 449T260 474Q260 480 261 487T264 502Q269 528 283 538T327 549Q353 549 364 541T375 516Q375 510 374 503T371 488Q366 462 352 452T308 441Z" />
<glyph unicode="&#xf8;" glyph-name="oslash" horiz-adv-x="491" d="M207 -12Q124 -12 80 38L13 -36L-25 -2L53 84Q38 120 38 167Q38 193 42 227T52 291Q75 405 134 466T284 528Q326 528 358 515T411 478L478 552L516 518L438 432Q453 396 453 349Q453 323 449
289T439 225Q416 111 357 50T207 -12ZM278 463Q221 463 187 429T139 329L116 213L100 131H107L174 215L362 422Q337 463 278 463ZM213 53Q270 53 304 87T352 187L375 303L391 385H384L317 301L129 94Q154 53 213 53Z" />
<glyph unicode="&#xf9;" glyph-name="ugrave" horiz-adv-x="510" d="M199 516L135 194Q127 156 127 128Q127 88 144 71T194 54Q248 54 282 95Q303 121 318 154T339 216L399 516H473L383 64H447L434 0H356Q307 0 307 47Q307 55 308 62T311 77L316 101H306Q263 -12
160 -12Q106 -12 79 23T51 122Q51 138 53 156T61 196L125 516H199ZM224 750L292 779L345 605L301 585L224 750Z" />
<glyph unicode="&#xfa;" glyph-name="uacute" horiz-adv-x="510" d="M199 516L135 194Q127 156 127 128Q127 88 144 71T194 54Q248 54 282 95Q303 121 318 154T339 216L399 516H473L383 64H447L434 0H356Q307 0 307 47Q307 55 308 62T311 77L316 101H306Q263 -12
160 -12Q106 -12 79 23T51 122Q51 138 53 156T61 196L125 516H199ZM321 585L276 611L374 779L435 742L321 585Z" />
<glyph unicode="&#xfb;" glyph-name="ucircumflex" horiz-adv-x="510" d="M199 516L135 194Q127 156 127 128Q127 88 144 71T194 54Q248 54 282 95Q303 121 318 154T339 216L399 516H473L383 64H447L434 0H356Q307 0 307 47Q307 55 308 62T311 77L316 101H306Q263
-12 160 -12Q106 -12 79 23T51 122Q51 138 53 156T61 196L125 516H199ZM373 765L449 618L408 591L326 709L198 591L159 621L290 765H373Z" />
<glyph unicode="&#xfc;" glyph-name="udieresis" horiz-adv-x="510" d="M199 516L135 194Q127 156 127 128Q127 88 144 71T194 54Q248 54 282 95Q303 121 318 154T339 216L399 516H473L383 64H447L434 0H356Q307 0 307 47Q307 55 308 62T311 77L316 101H306Q263
-12 160 -12Q106 -12 79 23T51 122Q51 138 53 156T61 196L125 516H199ZM232 620Q192 620 192 649Q192 660 196 677Q201 700 213 709T252 718Q292 718 292 689Q292 678 288 661Q283 638 271 629T232 620ZM400 620Q360 620 360 649Q360 660 364 677Q369 700 381 709T420
718Q460 718 460 689Q460 678 456 661Q451 638 439 629T400 620Z" />
<glyph unicode="&#xfd;" glyph-name="yacute" horiz-adv-x="447" d="M403 516H482L149 -143Q132 -175 113 -187T61 -200H-21L-8 -136H78L134 -23L71 516H143L174 242L182 64H192L269 242L403 516ZM301 585L256 611L354 779L415 742L301 585Z" />
<glyph unicode="&#xfe;" glyph-name="thorn" horiz-adv-x="519" d="M181 740H255L188 405H198Q244 528 346 528Q413 528 447 481T481 358Q481 331 477 296T467 229Q444 112 390 50T251 -12Q206 -12 173 12T134 84H124L67 -200H-7L181 740ZM240 53Q297 53 331 88T380
191L403 307Q406 321 406 334T407 357Q407 412 383 437T317 462Q288 462 266 450T224 412Q204 387 188 357T167 300L139 160Q136 143 141 124T160 89T193 63T240 53Z" />
<glyph unicode="&#xff;" glyph-name="ydieresis" horiz-adv-x="447" d="M403 516H482L149 -143Q132 -175 113 -187T61 -200H-21L-8 -136H78L134 -23L71 516H143L174 242L182 64H192L269 242L403 516ZM212 620Q172 620 172 649Q172 660 176 677Q181 700 193 709T232
718Q272 718 272 689Q272 678 268 661Q263 638 251 629T212 620ZM380 620Q340 620 340 649Q340 660 344 677Q349 700 361 709T400 718Q440 718 440 689Q440 678 436 661Q431 638 419 629T380 620Z" />
<glyph unicode="&#x2013;" glyph-name="endash" horiz-adv-x="507" d="M33 270L47 338H494L480 270H33Z" />
<glyph unicode="&#x2014;" glyph-name="emdash" horiz-adv-x="673" d="M33 270L47 338H660L646 270H33Z" />
<glyph unicode="&#x2018;" glyph-name="quoteleft" horiz-adv-x="244" d="M172 502Q149 502 137 511T124 540Q124 554 129 576Q133 593 142 614T164 658T195 701T235 740H297Q263 708 241 680T205 619Q242 614 242 582Q242 568 237 546Q232 526 218 514T172 502Z" />
<glyph unicode="&#x2019;" glyph-name="quoteright" horiz-adv-x="244" d="M219 744Q242 744 254 735T267 706Q267 692 262 670Q258 653 249 632T227 588T196 545T156 506H94Q128 538 150 566T186 627Q149 632 149 664Q149 678 154 700Q159 720 173 732T219 744Z" />
<glyph unicode="&#x201a;" glyph-name="quotesinglbase" horiz-adv-x="244" d="M95 122Q118 122 130 113T143 84Q143 70 138 48Q134 31 125 10T103 -34T72 -77T32 -116H-30Q4 -84 26 -56T62 5Q25 10 25 42Q25 56 30 78Q35 98 49 110T95 122Z" />
<glyph unicode="&#x201c;" glyph-name="quotedblleft" horiz-adv-x="424" d="M172 502Q149 502 137 511T124 540Q124 554 129 576Q133 593 142 614T164 658T195 701T235 740H297Q263 708 241 680T205 619Q242 614 242 582Q242 568 237 546Q232 526 218 514T172
502ZM352 502Q329 502 317 511T304 540Q304 554 309 576Q313 593 322 614T344 658T375 701T415 740H477Q443 708 421 680T385 619Q422 614 422 582Q422 568 417 546Q412 526 398 514T352 502Z" />
<glyph unicode="&#x201d;" glyph-name="quotedblright" horiz-adv-x="424" d="M219 744Q242 744 254 735T267 706Q267 692 262 670Q258 653 249 632T227 588T196 545T156 506H94Q128 538 150 566T186 627Q149 632 149 664Q149 678 154 700Q159 720 173 732T219
744ZM399 744Q422 744 434 735T447 706Q447 692 442 670Q438 653 429 632T407 588T376 545T336 506H274Q308 538 330 566T366 627Q329 632 329 664Q329 678 334 700Q339 720 353 732T399 744Z" />
<glyph unicode="&#x201e;" glyph-name="quotedblbase" horiz-adv-x="424" d="M95 122Q118 122 130 113T143 84Q143 70 138 48Q134 31 125 10T103 -34T72 -77T32 -116H-30Q4 -84 26 -56T62 5Q25 10 25 42Q25 56 30 78Q35 98 49 110T95 122ZM275 122Q298 122 310
113T323 84Q323 70 318 48Q314 31 305 10T283 -34T252 -77T212 -116H150Q184 -84 206 -56T242 5Q205 10 205 42Q205 56 210 78Q215 98 229 110T275 122Z" />
<glyph unicode="&#x2022;" glyph-name="bullet" horiz-adv-x="352" d="M166 190Q118 190 96 209T73 263Q73 269 75 284T82 321Q92 367 119 392T206 418Q254 418 276 399T299 345Q299 339 297 324T290 287Q280 241 253 216T166 190Z" />
<glyph unicode="&#x2039;" glyph-name="guilsinglleft" horiz-adv-x="268" d="M164 98L29 255L42 321L232 472L261 423L106 287L104 277L203 138L164 98Z" />
<glyph unicode="&#x203a;" glyph-name="guilsinglright" horiz-adv-x="268" d="M18 147L173 283L175 293L76 432L115 472L250 315L237 249L47 98L18 147Z" />
</font>
</defs>
</svg>
